PathFileType	4	(x/y/z)	A01_T0012.trc
DataRate	CameraRate	NumFrames	NumMarkers	Units	OrigDataRate	OrigDataStartFrame	OrigNumFrames
240	240	4	47	mm	240	1	1200
Frame#	Time	R_AC			L_AC			R_ASIS			L_ASIS			R_PSIS			L_PSIS			R_GT			L_GT			R_IC			L_IC			SACRAL			R_THIGH_PROX_POST			L_THIGH_PROX_POST			R_THIGH_PROX_ANT			L_THIGH_PROX_ANT			R_THIGH_DIST_POST			L_THIGH_DIST_POST			R_THIGH_DIST_ANT			L_THIGH_DIST_ANT			R_LAT_KNEE			R_MED_KNEE			L_LAT_KNEE			L_MED_KNEE			L_PROS_PROX_ANT			L_PROS_PROX_POST			L_PROS_DIST_ANT			L_PROS_DIST_POST			R_LL_PROX_ANT			R_LL_PROX_POST			R_LL_DIST_POST			R_LL_DIST_ANT			R_LAT_ANK			R_MED_ANK			L_MED_ANK			L_LAT_ANK			L_TOE			R_TOE			L_5TH_MET			L_1ST_MET			R_1ST_MET			R_5TH_MET			R_HEEL_SUP			L_HEEL_SUP			R_HEEL_LAT			L_HEEL_LAT			L_HEEL_MED			R_HEEL_MED			
		X1	Y1	Z1	X2	Y2	Z2	X3	Y3	Z3	X4	Y4	Z4	X5	Y5	Z5	X6	Y6	Z6	X7	Y7	Z7	X8	Y8	Z8	X9	Y9	Z9	X10	Y10	Z10	X11	Y11	Z11	X12	Y12	Z12	X13	Y13	Z13	X14	Y14	Z14	X15	Y15	Z15	X16	Y16	Z16	X17	Y17	Z17	X18	Y18	Z18	X19	Y19	Z19	X20	Y20	Z20	X21	Y21	Z21	X22	Y22	Z22	X23	Y23	Z23	X24	Y24	Z24	X25	Y25	Z25	X26	Y26	Z26	X27	Y27	Z27	X28	Y28	Z28	X29	Y29	Z29	X30	Y30	Z30	X31	Y31	Z31	X32	Y32	Z32	X33	Y33	Z33	X34	Y34	Z34	X35	Y35	Z35	X36	Y36	Z36	X37	Y37	Z37	X38	Y38	Z38	X39	Y39	Z39	X40	Y40	Z40	X41	Y41	Z41	X42	Y42	Z42	X43	Y43	Z43	X44	Y44	Z44	X45	Y45	Z45	X46	Y46	Z46	X47	Y47	Z47	

1	0	592.12	1570.6	544.54	640	1588.6	125.02	699.02	1082.5	533.69	765.03	1069.5	180.16	509.24	1076.6	369.25	539.03	1090.6	243.42	634.36	968.19	555.67	716.19	978.74	123.53	640	1178.3	541.84	725.12	1173.9	138.56	509.76	1054	299.41	601.04	841.45	533.96	714.1	838.49	131.2	667.9	864.4	549.13	779.77	834.69	161.73	612.26	753.25	530.43	725.9	763.03	140.51	676.88	773.09	546.43	786.05	760.81	167.52	640.87	561.57	508.28	689.85	551.96	383.33	722.02	582.55	157.61	736.55	554.66	313.02	748.06	491.39	161.5	694.72	504.02	150.07	727.64	438.55	161.47	675.03	444.05	150.9	580.36	385.36	531.85	517.66	403.8	499.08	521.98	320.79	498.05	572.86	310.39	519.43	522.63	110.39	491.33	559.73	115.71	390.96	598.95	147.16	201.7	571.16	152.31	134.69	793.83	75.261	151.13	766.49	72.042	469.9	679.81	54.711	78.628	710.82	57.086	206.59	690.57	57.835	410.72	641.42	45.589	538.83	440.7	69.095	421.58	475.16	109.96	165.92	443.39	45.332	456.08	480.49	81.402	133.84	489.64	78.705	197.18	454.13	44.345	394.52
2	0.0041701	592.08	1570.7	544.5	640.25	1588.6	124.95	698.97	1082.5	533.66	765	1069.5	180.11	509.2	1076.6	369.23	538.95	1090.6	243.41	634.32	968.21	555.66	716.15	978.73	123.51	639.95	1178.3	541.82	725.1	1173.9	138.49	509.72	1054	299.37	601	841.45	533.94	714.07	838.48	131.2	667.87	864.42	549.08	779.67	834.66	161.72	612.27	753.18	530.37	725.87	763.03	140.53	676.86	773.11	546.42	785.99	760.8	167.48	640.87	561.56	508.27	689.86	551.96	383.31	722.03	582.54	157.59	736.38	554.64	313.02	748.06	491.37	161.49	694.73	504.06	150.05	727.64	438.55	161.46	675.02	444.08	150.92	580.36	385.36	531.85	517.63	403.79	499.08	521.97	320.77	498.02	572.84	310.39	519.43	522.62	110.39	491.32	559.73	115.71	390.97	598.96	147.19	201.71	571.17	152.29	134.71	793.82	75.267	151.12	766.5	72.045	469.91	679.81	54.692	78.643	710.84	57.114	206.59	690.55	57.81	410.74	641.43	45.611	538.85	440.58	69.19	421.48	475.13	109.96	165.91	443.36	45.322	456.09	480.49	81.383	133.9	489.61	78.694	197.17	454.13	44.355	394.54
3	0.0083403	592.04	1570.7	544.47	640.5	1588.6	124.88	698.92	1082.5	533.62	764.98	1069.5	180.06	509.16	1076.6	369.21	538.88	1090.6	243.4	634.28	968.22	555.64	716.12	978.71	123.49	639.89	1178.3	541.8	725.07	1173.9	138.42	509.68	1054	299.34	600.95	841.45	533.92	714.05	838.47	131.21	667.84	864.44	549.03	779.57	834.62	161.72	612.28	753.11	530.31	725.85	763.03	140.55	676.83	773.12	546.4	785.94	760.79	167.44	640.86	561.54	508.27	689.88	551.95	383.3	722.04	582.53	157.58	736.21	554.63	313.02	748.06	491.36	161.48	694.75	504.1	150.02	727.64	438.54	161.45	675.01	444.1	150.95	580.35	385.36	531.85	517.6	403.78	499.09	521.95	320.75	497.99	572.83	310.39	519.44	522.6	110.39	491.31	559.74	115.7	390.98	598.98	147.22	201.72	571.17	152.26	134.73	793.82	75.272	151.11	766.5	72.049	469.93	679.8	54.673	78.658	710.85	57.141	206.59	690.54	57.785	410.76	641.44	45.631	538.87	440.46	69.283	421.38	475.1	109.96	165.91	443.34	45.312	456.1	480.48	81.364	133.97	489.57	78.682	197.16	454.14	44.365	394.55
4	0.01251	592.01	1570.7	544.43	640.74	1588.6	124.81	698.86	1082.5	533.58	764.95	1069.5	180.01	509.11	1076.6	369.19	538.81	1090.6	243.38	634.24	968.24	555.63	716.08	978.7	123.47	639.83	1178.3	541.77	725.05	1173.8	138.35	509.64	1054	299.3	600.91	841.45	533.9	714.02	838.46	131.21	667.81	864.47	548.98	779.48	834.59	161.71	612.29	753.04	530.25	725.83	763.03	140.56	676.81	773.13	546.38	785.88	760.77	167.4	640.85	561.52	508.26	689.89	551.94	383.29	722.04	582.52	157.57	736.04	554.62	313.02	748.05	491.35	161.47	694.76	504.13	150	727.63	438.54	161.44	675	444.12	150.97	580.34	385.36	531.85	517.57	403.77	499.09	521.94	320.73	497.96	572.82	310.39	519.45	522.59	110.39	491.29	559.74	115.7	390.99	598.99	147.25	201.73	571.17	152.24	134.75	793.81	75.277	151.09	766.5	72.053	469.94	679.8	54.655	78.672	710.87	57.167	206.58	690.52	57.762	410.78	641.45	45.651	538.89	440.34	69.373	421.28	475.08	109.96	165.91	443.32	45.303	456.11	480.48	81.344	134.03	489.54	78.67	197.15	454.14	44.374	394.56
